<?xml version="1.0" standalone="no"?>
<!DOCTYPE svg PUBLIC "-//W3C//DTD SVG 20010904//EN"
 "http://www.w3.org/TR/2001/REC-SVG-20010904/DTD/svg10.dtd">
<svg version="1.0" xmlns="http://www.w3.org/2000/svg"
 width="60.000000pt" height="60.000000pt" viewBox="0 0 60.000000 60.000000"
 preserveAspectRatio="xMidYMid meet">

<g transform="translate(0.000000,60.000000) scale(0.100000,-0.100000)"
fill="#000000" stroke="none">
<path d="M76 455 c-21 -7 -45 -20 -53 -27 -12 -12 -11 -17 6 -32 18 -16 21
-16 52 -1 40 21 93 14 125 -16 40 -37 31 -48 -43 -51 -65 -3 -68 -4 -68 -28 0
-24 3 -25 73 -28 l73 -3 -17 -29 c-30 -50 -100 -65 -155 -33 -27 16 -29 16
-48 -1 -25 -23 -21 -31 29 -56 84 -43 187 -12 225 67 20 43 35 55 35 29 0 -21
47 -74 81 -91 82 -43 246 14 186 63 -10 9 -24 6 -56 -10 -36 -18 -48 -19 -80
-9 -49 14 -71 40 -78 88 -6 49 9 87 43 110 35 23 97 23 122 0 18 -16 20 -16
37 3 18 20 18 21 -2 41 -23 23 -85 35 -137 25 -45 -9 -89 -45 -111 -92 l-17
-37 -13 29 c-16 39 -66 81 -113 94 -46 12 -48 12 -96 -5z"/>
</g>
</svg>
